<?xml version="1.0" encoding="utf-8"?>
<svg viewBox="72.445 21.992 240 64" xmlns="http://www.w3.org/2000/svg" xmlns:bx="https://boxy-svg.com">
 <g id="img">
  <defs>
    <style bx:fonts="Abyssinica SIL">@import url(https://fonts.googleapis.com/css2?family=Abyssinica+SIL%3Aital%2Cwght%400%2C400&amp;display=swap);</style>
  </defs>
  <g id="surface1" transform="matrix(1.0466070175170898, 0, 0, 1.082988977432251, 73.15539659791284, 19.598533922412)">
    <path style=" stroke:none;fill-rule:nonzero;fill:rgb(58.431373%,83.137255%,78.823529%);fill-opacity:1;" d="M 59.457031 24.117188 C 60.515625 25.125 61.496094 26.296875 61.667969 27.796875 C 61.710938 29.910156 60.734375 31.375 59.328125 32.855469 C 56.503906 35.527344 52.515625 37.179688 48.828125 38.179688 C 47.488281 38.546875 46.742188 38.824219 46.015625 40.066406 C 42.757812 44.09375 37.242188 46.835938 32.148438 47.445312 C 29.59375 47.683594 27.007812 47.457031 24.894531 45.878906 C 23.988281 45.09375 23.664062 44.121094 23.40625 42.976562 C 23.390625 42.59375 23.390625 42.59375 23.40625 42.3125 C 23.273438 42.359375 23.144531 42.402344 23.007812 42.445312 C 22.777344 42.460938 22.546875 42.464844 22.316406 42.46875 C 22.105469 42.46875 22.105469 42.46875 21.890625 42.472656 C 21.65625 42.472656 21.65625 42.472656 21.421875 42.472656 C 21.261719 42.472656 21.101562 42.476562 20.933594 42.476562 C 20.589844 42.476562 20.25 42.476562 19.90625 42.476562 C 19.394531 42.480469 18.882812 42.484375 18.371094 42.488281 C 13.769531 42.507812 6.859375 42.359375 3.238281 38.96875 C 1.203125 36.625 1.320312 33.367188 1.472656 30.457031 C 1.796875 25.925781 3.691406 21.445312 6.613281 17.984375 C 6.679688 17.894531 6.75 17.804688 6.824219 17.714844 C 9.164062 14.828125 12.925781 13.949219 16.457031 13.570312 C 27.957031 12.511719 40.660156 14.238281 59.457031 24.117188 Z M 27.238281 21.421875 C 24.769531 24.957031 24.195312 29.546875 23.667969 33.71875 C 23.652344 33.847656 23.636719 33.980469 23.617188 34.113281 C 23.441406 35.515625 23.371094 36.917969 23.3125 38.332031 C 23.308594 38.488281 23.300781 38.644531 23.292969 38.808594 C 23.257812 39.890625 23.273438 40.972656 23.40625 42.050781 C 23.625 42.269531 23.886719 42.203125 24.1875 42.203125 C 25.304688 42.191406 26.410156 42.082031 27.519531 41.96875 C 27.636719 41.957031 27.75 41.945312 27.867188 41.933594 C 33.410156 41.363281 38.894531 40.421875 44.339844 39.230469 C 44.441406 39.210938 44.539062 39.1875 44.644531 39.164062 C 44.929688 39.105469 45.210938 39.039062 45.496094 38.976562 C 45.652344 38.941406 45.8125 38.90625 45.976562 38.871094 C 46.769531 38.644531 46.769531 38.644531 47.386719 38.128906 C 47.421875 38.046875 47.460938 37.96875 47.496094 37.886719 C 47.5625 37.75 47.5625 37.75 47.625 37.613281 C 47.667969 37.519531 47.710938 37.421875 47.753906 37.324219 C 47.796875 37.222656 47.839844 37.121094 47.886719 37.019531 C 48.925781 34.628906 49.238281 32.21875 48.34375 29.742188 C 47.839844 28.464844 47.125 27.390625 46.28125 26.3125 C 46.210938 26.222656 46.144531 26.128906 46.070312 26.035156 C 45.597656 25.4375 45.011719 24.976562 44.417969 24.503906 C 44.171875 24.308594 43.933594 24.113281 43.699219 23.910156 C 40.691406 21.316406 36.210938 19.015625 32.160156 19.136719 C 30.246094 19.304688 28.527344 19.945312 27.238281 21.421875 Z M 27.238281 21.421875 "/>
    <path style=" stroke:none;fill-rule:nonzero;fill:rgb(52.156863%,78.823529%,65.882353%);fill-opacity:1;" d="M 35.042969 19.4375 C 36.085938 19.527344 37.09375 19.734375 38.117188 19.96875 C 38.25 19.996094 38.25 19.996094 38.382812 20.027344 C 40.347656 20.472656 42.257812 21.046875 44.164062 21.6875 C 44.28125 21.726562 44.402344 21.761719 44.523438 21.804688 C 47.753906 22.878906 51.003906 24.417969 53.554688 26.710938 C 53.667969 26.8125 53.78125 26.914062 53.898438 27.019531 C 55.277344 28.3125 56.519531 30.164062 56.621094 32.109375 C 56.660156 34.335938 56.660156 34.335938 55.996094 35.160156 C 55.53125 35.554688 55.019531 35.792969 54.472656 36.050781 C 54.351562 36.105469 54.230469 36.164062 54.109375 36.222656 C 48.921875 38.613281 48.921875 38.613281 47.207031 38.480469 C 47.292969 37.875 47.53125 37.363281 47.785156 36.816406 C 48.828125 34.496094 49.085938 32.160156 48.210938 29.742188 C 47.503906 27.949219 46.324219 26.148438 44.808594 24.949219 C 44.058594 24.351562 44.058594 24.351562 43.699219 24.039062 C 41.417969 22.074219 38.652344 20.773438 35.828125 19.800781 C 35.554688 19.695312 35.300781 19.574219 35.042969 19.4375 Z M 35.042969 19.4375 "/>
    <path style=" stroke:none;fill-rule:nonzero;fill:rgb(38.431373%,70.980392%,61.960784%);fill-opacity:1;" d="M 35.042969 19.4375 C 35.890625 19.503906 36.621094 19.667969 37.421875 19.96875 C 37.421875 20.054688 37.421875 20.140625 37.421875 20.230469 C 36.625 20.015625 35.832031 19.796875 35.042969 19.570312 C 35.042969 19.527344 35.042969 19.484375 35.042969 19.4375 Z M 35.042969 19.4375 "/>
    <path style=" stroke:none;fill-rule:nonzero;fill:rgb(0%,0%,0%);fill-opacity:1;" d="M 32.265625 63.601562 C 32.394531 63.601562 32.527344 63.601562 32.660156 63.601562 C 32.660156 63.734375 32.660156 63.863281 32.660156 64 C 32.53125 64 32.398438 64 32.265625 64 C 32.265625 63.867188 32.265625 63.738281 32.265625 63.601562 Z M 32.265625 63.601562 "/>
  </g>
  <text style="fill: rgb(51, 51, 51); font-family: 'Abyssinica SIL'; font-size: 33px; white-space: pre;" x="146.221" y="61.268" transform="matrix(1.0466070175170898, 0, 0, 1.082988977432251, -8.035917401848984, -4.878202034208206)">popa-track</text>
  <text style="white-space: pre; fill: rgb(51, 51, 51); font-family: Arial, sans-serif; font-size: 6.9px;" x="223.62" y="81.632" transform="matrix(1.0466070175170898, 0, 0, 1.082988977432251, -3.477767996158711, -2.357484137378396)"> </text>
 </g>
 </svg>